<svg xmlns="http://www.w3.org/2000/svg" width="900" height="450" viewBox="0 0 900 450" role="img" aria-label="HTML5, CSS3, JavaScript, React, Bootstrap, Tailwind CSS, Python, Django, PHP, SQL, MySQL, Pandas, NumPy, Matplotlib, Seaborn, Scikit-learn, Jupyter, Git, GitHub">
  <defs><pattern id="scan" width="4" height="4" patternUnits="userSpaceOnUse"><rect width="4" height="1" fill="#fff" fill-opacity=".035"/></pattern></defs>
  <rect width="900" height="450" rx="10" fill="#0E0820"/>
  <rect width="900" height="450" rx="10" fill="url(#scan)"/>
  <path d="M6,26 V6 H26 M874,6 H894 V26 M894,424 V444 H874 M26,444 H6 V424" fill="none" stroke="#00F0FF" stroke-width="2.5" stroke-opacity=".9"/>
  <text x="44" y="70" font-family="'JetBrains Mono', 'SFMono-Regular', Consolas, 'Liberation Mono', Menlo, monospace" font-size="17" font-weight="700" fill="#FF2BD6" letter-spacing="2">FRONTEND</text><rect x="220" y="44" width="104" height="40" fill="#00F0FF" fill-opacity=".06" stroke="#00F0FF" stroke-opacity=".6"/><rect x="220" y="44" width="4" height="40" fill="#00F0FF"/><text x="274.0" y="71" text-anchor="middle" font-family="'JetBrains Mono', 'SFMono-Regular', Consolas, 'Liberation Mono', Menlo, monospace" font-size="22" fill="#F2F0FF" fill-opacity="1">HTML5</text><rect x="336" y="44" width="90" height="40" fill="#00F0FF" fill-opacity=".06" stroke="#00F0FF" stroke-opacity=".6"/><rect x="336" y="44" width="4" height="40" fill="#00F0FF"/><text x="383.0" y="71" text-anchor="middle" font-family="'JetBrains Mono', 'SFMono-Regular', Consolas, 'Liberation Mono', Menlo, monospace" font-size="22" fill="#F2F0FF" fill-opacity="1">CSS3</text><rect x="438" y="44" width="172" height="40" fill="#00F0FF" fill-opacity=".06" stroke="#00F0FF" stroke-opacity=".6"/><rect x="438" y="44" width="4" height="40" fill="#00F0FF"/><text x="526.0" y="71" text-anchor="middle" font-family="'JetBrains Mono', 'SFMono-Regular', Consolas, 'Liberation Mono', Menlo, monospace" font-size="22" fill="#F2F0FF" fill-opacity="1">JavaScript</text><rect x="622" y="44" width="104" height="40" fill="#00F0FF" fill-opacity=".06" stroke="#00F0FF" stroke-opacity=".6"/><rect x="622" y="44" width="4" height="40" fill="#00F0FF"/><text x="676.0" y="71" text-anchor="middle" font-family="'JetBrains Mono', 'SFMono-Regular', Consolas, 'Liberation Mono', Menlo, monospace" font-size="22" fill="#F2F0FF" fill-opacity="1">React</text><rect x="220" y="96" width="158" height="40" fill="#00F0FF" fill-opacity=".06" stroke="#00F0FF" stroke-opacity=".6"/><rect x="220" y="96" width="4" height="40" fill="#00F0FF"/><text x="301.0" y="123" text-anchor="middle" font-family="'JetBrains Mono', 'SFMono-Regular', Consolas, 'Liberation Mono', Menlo, monospace" font-size="22" fill="#F2F0FF" fill-opacity="1">Bootstrap</text><rect x="390" y="96" width="199" height="40" fill="#00F0FF" fill-opacity=".06" stroke="#00F0FF" stroke-opacity=".6"/><rect x="390" y="96" width="4" height="40" fill="#00F0FF"/><text x="491.5" y="123" text-anchor="middle" font-family="'JetBrains Mono', 'SFMono-Regular', Consolas, 'Liberation Mono', Menlo, monospace" font-size="22" fill="#F2F0FF" fill-opacity="1">Tailwind CSS</text><rect x="44" y="152" width="812" height="1" fill="#1C1235"/><text x="44" y="196" font-family="'JetBrains Mono', 'SFMono-Regular', Consolas, 'Liberation Mono', Menlo, monospace" font-size="17" font-weight="700" fill="#FF2BD6" letter-spacing="2">BACKEND</text><rect x="220" y="170" width="117" height="40" fill="#00F0FF" fill-opacity=".06" stroke="#00F0FF" stroke-opacity=".6"/><rect x="220" y="170" width="4" height="40" fill="#00F0FF"/><text x="280.5" y="197" text-anchor="middle" font-family="'JetBrains Mono', 'SFMono-Regular', Consolas, 'Liberation Mono', Menlo, monospace" font-size="22" fill="#F2F0FF" fill-opacity="1">Python</text><rect x="349" y="170" width="117" height="40" fill="#00F0FF" fill-opacity=".06" stroke="#00F0FF" stroke-opacity=".6"/><rect x="349" y="170" width="4" height="40" fill="#00F0FF"/><text x="409.5" y="197" text-anchor="middle" font-family="'JetBrains Mono', 'SFMono-Regular', Consolas, 'Liberation Mono', Menlo, monospace" font-size="22" fill="#F2F0FF" fill-opacity="1">Django</text><rect x="478" y="170" width="76" height="40" fill="#00F0FF" fill-opacity=".06" stroke="#00F0FF" stroke-opacity=".6"/><rect x="478" y="170" width="4" height="40" fill="#00F0FF"/><text x="518.0" y="197" text-anchor="middle" font-family="'JetBrains Mono', 'SFMono-Regular', Consolas, 'Liberation Mono', Menlo, monospace" font-size="22" fill="#F2F0FF" fill-opacity="1">PHP</text><rect x="44" y="226" width="812" height="1" fill="#1C1235"/><text x="44" y="270" font-family="'JetBrains Mono', 'SFMono-Regular', Consolas, 'Liberation Mono', Menlo, monospace" font-size="17" font-weight="700" fill="#FF2BD6" letter-spacing="2">DATA</text><rect x="220" y="244" width="76" height="40" fill="#00F0FF" fill-opacity=".06" stroke="#00F0FF" stroke-opacity=".6"/><rect x="220" y="244" width="4" height="40" fill="#00F0FF"/><text x="260.0" y="271" text-anchor="middle" font-family="'JetBrains Mono', 'SFMono-Regular', Consolas, 'Liberation Mono', Menlo, monospace" font-size="22" fill="#F2F0FF" fill-opacity="1">SQL</text><rect x="308" y="244" width="104" height="40" fill="#00F0FF" fill-opacity=".06" stroke="#00F0FF" stroke-opacity=".6"/><rect x="308" y="244" width="4" height="40" fill="#00F0FF"/><text x="362.0" y="271" text-anchor="middle" font-family="'JetBrains Mono', 'SFMono-Regular', Consolas, 'Liberation Mono', Menlo, monospace" font-size="22" fill="#F2F0FF" fill-opacity="1">MySQL</text><rect x="424" y="244" width="117" height="40" fill="#00F0FF" fill-opacity=".06" stroke="#00F0FF" stroke-opacity=".6"/><rect x="424" y="244" width="4" height="40" fill="#00F0FF"/><text x="484.5" y="271" text-anchor="middle" font-family="'JetBrains Mono', 'SFMono-Regular', Consolas, 'Liberation Mono', Menlo, monospace" font-size="22" fill="#F2F0FF" fill-opacity="1">Pandas</text><rect x="553" y="244" width="104" height="40" fill="#00F0FF" fill-opacity=".06" stroke="#00F0FF" stroke-opacity=".6"/><rect x="553" y="244" width="4" height="40" fill="#00F0FF"/><text x="607.0" y="271" text-anchor="middle" font-family="'JetBrains Mono', 'SFMono-Regular', Consolas, 'Liberation Mono', Menlo, monospace" font-size="22" fill="#F2F0FF" fill-opacity="1">NumPy</text><rect x="669" y="244" width="172" height="40" fill="#00F0FF" fill-opacity=".06" stroke="#00F0FF" stroke-opacity=".6"/><rect x="669" y="244" width="4" height="40" fill="#00F0FF"/><text x="757.0" y="271" text-anchor="middle" font-family="'JetBrains Mono', 'SFMono-Regular', Consolas, 'Liberation Mono', Menlo, monospace" font-size="22" fill="#F2F0FF" fill-opacity="1">Matplotlib</text><rect x="220" y="296" width="131" height="40" fill="#00F0FF" fill-opacity=".06" stroke="#00F0FF" stroke-opacity=".6"/><rect x="220" y="296" width="4" height="40" fill="#00F0FF"/><text x="287.5" y="323" text-anchor="middle" font-family="'JetBrains Mono', 'SFMono-Regular', Consolas, 'Liberation Mono', Menlo, monospace" font-size="22" fill="#F2F0FF" fill-opacity="1">Seaborn</text><rect x="363" y="296" width="199" height="40" fill="#00F0FF" fill-opacity=".06" stroke="#00F0FF" stroke-opacity=".6"/><rect x="363" y="296" width="4" height="40" fill="#00F0FF"/><text x="464.5" y="323" text-anchor="middle" font-family="'JetBrains Mono', 'SFMono-Regular', Consolas, 'Liberation Mono', Menlo, monospace" font-size="22" fill="#F2F0FF" fill-opacity="1">Scikit-learn</text><rect x="574" y="296" width="131" height="40" fill="#00F0FF" fill-opacity=".06" stroke="#00F0FF" stroke-opacity=".6"/><rect x="574" y="296" width="4" height="40" fill="#00F0FF"/><text x="641.5" y="323" text-anchor="middle" font-family="'JetBrains Mono', 'SFMono-Regular', Consolas, 'Liberation Mono', Menlo, monospace" font-size="22" fill="#F2F0FF" fill-opacity="1">Jupyter</text><rect x="44" y="352" width="812" height="1" fill="#1C1235"/><text x="44" y="396" font-family="'JetBrains Mono', 'SFMono-Regular', Consolas, 'Liberation Mono', Menlo, monospace" font-size="17" font-weight="700" fill="#FF2BD6" letter-spacing="2">TOOLS</text><rect x="220" y="370" width="76" height="40" fill="#00F0FF" fill-opacity=".06" stroke="#00F0FF" stroke-opacity=".6"/><rect x="220" y="370" width="4" height="40" fill="#00F0FF"/><text x="260.0" y="397" text-anchor="middle" font-family="'JetBrains Mono', 'SFMono-Regular', Consolas, 'Liberation Mono', Menlo, monospace" font-size="22" fill="#F2F0FF" fill-opacity="1">Git</text><rect x="308" y="370" width="117" height="40" fill="#00F0FF" fill-opacity=".06" stroke="#00F0FF" stroke-opacity=".6"/><rect x="308" y="370" width="4" height="40" fill="#00F0FF"/><text x="368.5" y="397" text-anchor="middle" font-family="'JetBrains Mono', 'SFMono-Regular', Consolas, 'Liberation Mono', Menlo, monospace" font-size="22" fill="#F2F0FF" fill-opacity="1">GitHub</text>
</svg>
